<svg width="300" height="300" viewBox="0 0 300 300" fill="none" xmlns="http://www.w3.org/2000/svg">
<g clip-path="url(#clip0_15224_450)">
<path d="M260.2 105.6C262.509 101.926 265.578 98.7891 269.2 96.3999C271.2 94.9999 272.4 94.9999 273.6 97.5999C275.2 101.4 276.6 105.4 275.4 109.6C275.182 110.312 275.14 111.067 275.28 111.799C275.419 112.531 275.735 113.218 276.2 113.8C277.4 115.4 278.4 117 279.4 118.4C280.761 120.127 281.644 122.183 281.96 124.359C282.276 126.535 282.014 128.757 281.2 130.8C280.466 132.784 280.327 134.938 280.8 137C281.2 138.98 281.2 141.02 280.8 143C280.638 144.483 280.038 145.884 279.076 147.024C278.114 148.164 276.835 148.991 275.4 149.4C272.842 149.887 270.559 151.314 269 153.4C268.811 153.707 268.546 153.961 268.231 154.136C267.916 154.311 267.561 154.402 267.2 154.4C264.8 154.8 258.8 149.4 258.8 147V145.8C259 138.6 258.6 138 252 135C250.619 134.513 249.381 133.688 248.4 132.6C247.2 131 245.6 131.2 243.8 131.8C242 132.4 241 133.6 241.2 135.6C241.803 140.442 242.004 145.325 241.8 150.2C241.813 150.756 241.95 151.303 242.2 151.8C248.4 160.8 250.8 171.4 253.8 181.6C256.2 189.4 260.6 193.6 268.6 194.2C269.88 194.302 271.151 194.503 272.4 194.8C274.044 195.064 275.57 195.815 276.783 196.956C277.995 198.097 278.837 199.575 279.2 201.2C280.6 205.4 279.8 206.4 275.6 206.4H262.6C260.917 206.485 259.267 205.911 258 204.8C255.976 203.092 253.677 201.739 251.2 200.8C248.462 199.789 246.093 197.977 244.4 195.6C242.057 192.327 239.376 189.31 236.4 186.6C230.8 180.8 224.8 175.2 219.6 169.2C215.641 165.112 213.358 159.688 213.2 154C213.2 152.2 212.8 151.4 210.8 152.2C210.201 152.58 209.509 152.787 208.8 152.8C203.2 152.8 200.4 156.2 198.4 161.2C196.6 165.4 194.2 169.4 192 173.6C190.753 176.229 190.071 179.091 190 182C190 186.8 191.2 188.4 195.6 190C198.4 191 201 192 202.4 194.8C204 198 203.6 198.8 200.2 199H186.6C185.816 199.078 185.027 198.907 184.346 198.512C183.664 198.117 183.123 197.518 182.8 196.8L179.2 190.8C178.139 189.234 177.459 187.442 177.216 185.566C176.973 183.691 177.173 181.784 177.8 180C178.666 176.527 178.734 172.903 178 169.4C177.496 166.96 177.539 164.439 178.127 162.018C178.715 159.597 179.833 157.337 181.4 155.4C182.6 154 182.6 153.4 180.6 153C172.422 151.263 164.493 148.508 157 144.8C156.947 144.8 156.896 144.779 156.859 144.741C156.821 144.704 156.8 144.653 156.8 144.6C150.4 142.2 149.2 142.6 147.4 149.2C145.8 154.8 144.2 160.4 143 166.2C141.6 172.6 143.2 178.6 145.2 184.6C146 187 148.4 186.8 150.2 187.4C154.2 188.6 157.6 190.2 159.2 194.4C160.6 197.6 160.4 198 157 198C153.6 198 150.2 197.8 146.6 198C143.562 198.055 140.597 197.067 138.2 195.2C128.6 188.8 125.8 179 125 168.4C124.6 161.8 121 156.6 116.8 151.6C116 150.6 115.2 150.2 114 151C109.707 153.367 105.225 155.374 100.6 157C90.9485 160.408 82.4793 166.517 76.2 174.6C73.8553 177.55 72.3368 181.07 71.8 184.8C71.2 188.4 72.2 190 75.8 191C79.4 192 81.2 194 81.6 197.8C81.8 199.4 81.2 200.2 79.6 200.2H63.4C62.8698 200.162 62.3566 199.997 61.9039 199.719C61.4512 199.44 61.0725 199.056 60.8 198.6C58.2877 195.489 56.9433 191.598 57 187.6C56.8951 180.69 57.4982 173.787 58.8 167C59.067 164.967 59.8259 163.03 61.0108 161.358C62.1958 159.685 63.7711 158.326 65.6 157.4C77.4 151.8 83.6 141.2 89.2 130.2C90.4 128 89.4 127.6 87.4 127.8C81.8027 128.577 76.4994 130.781 72 134.2C66.1084 138.498 60.5585 143.245 55.4 148.4C49.8993 153.987 42.6054 157.457 34.8 158.2C20.2 159 13.4 150.8 14 137.6C14.1341 133.099 15.8313 128.785 18.8 125.4C19.8321 124.062 21.2395 123.062 22.8426 122.527C24.4456 121.993 26.1716 121.949 27.8 122.4C30.8 123.2 31.6 124.8 30.4 127.8C29.8 129 29 130 28.4 131.2C27.5372 132.426 26.8631 133.774 26.4 135.2C24.2 141.2 27.2 145.4 33.4 146C40 146.6 45.4 143.8 50.4 139.8C56.4239 134.976 61.8014 129.397 66.4 123.2C69.8385 118.675 74.1682 114.902 79.1217 112.116C84.0751 109.33 89.5472 107.589 95.2 107C99.8 106.4 103.8 104.4 108.2 103.2C116.429 100.691 124.998 99.4766 133.6 99.5999C137.584 99.7658 141.553 99.0131 145.2 97.3999C155 93.3999 165.2 93.3999 175.4 95.3999C183.4 96.9999 191.4 98.9999 199.2 101C203.842 101.865 208.615 101.728 213.2 100.6C221.977 98.375 230.956 97.0349 240 96.5999C245.925 96.3116 251.83 97.479 257.2 99.9999C261.2 101.8 261.2 101.8 260.2 105.6Z" fill="black"/>
</g>
<defs>
<clipPath id="clip0_15224_450">
<rect width="268" height="112" fill="white" transform="translate(14 94)"/>
</clipPath>
</defs>
</svg>
