<svg width="300" height="300" viewBox="0 0 300 300" fill="none" xmlns="http://www.w3.org/2000/svg">
<g clip-path="url(#clip0_15224_451)">
<path d="M189.68 39H188.92C187.636 39.7184 186.614 40.8199 186 42.1472C184.875 44.2891 184.009 46.5546 183.42 48.8969C183.294 49.6012 182.934 50.244 182.398 50.7241C181.863 51.2042 181.181 51.4945 180.46 51.5493C178.256 51.9253 176.167 52.7949 174.355 54.0917C172.542 55.3884 171.052 57.0779 170 59.0313C168.553 61.5676 167.316 64.2154 166.3 66.9489C163.46 74.233 161.28 81.7546 158.6 89.0981C157.34 92.4433 157.28 92.4433 153.48 92.4433C148.94 92.4433 149.26 91.7505 149.2 96.699C149.2 98.2627 149.68 99.0544 151.36 98.9753C151.88 98.9753 152.66 98.7179 152.86 99.3909C153.06 100.064 152.38 100.361 151.98 100.757C149.609 103.139 146.608 104.813 143.32 105.586C139.52 106.596 135.64 107.388 131.94 108.615C122.44 111.762 113.66 116.156 106.82 123.599C102.821 128.221 99.6177 133.464 97.34 139.117C90 156.219 86.44 174.231 83.68 192.422C82.38 200.953 81.46 209.524 80.76 218.154C80.4 222.39 80 226.685 80 231H146.66C146.771 230.129 146.61 229.245 146.2 228.466C145.559 226.887 144.517 225.498 143.175 224.434C141.833 223.369 140.237 222.665 138.54 222.39C137.14 222.073 136.98 221.657 137.84 220.569C139.243 218.716 140.318 216.641 141.02 214.433C144.28 204.912 145.54 194.975 147.12 185.138C148.013 177.624 150.348 170.348 154 163.701C156.849 158.809 160.649 154.523 165.18 151.092C166.84 149.845 166.9 149.845 167.18 151.963C167.38 153.369 167.42 154.814 167.52 156.239C168.12 165.59 168 174.973 167.16 184.306C166.405 191.541 166.304 198.828 166.86 206.08C167.655 214.499 169.174 222.836 171.4 231H198C197.653 228.857 196.656 226.869 195.142 225.3C193.627 223.731 191.667 222.653 189.52 222.212C187.013 221.817 184.45 221.952 182 222.607C180.8 222.885 180.3 222.607 180.2 221.321C179.373 210.842 180.046 200.3 182.2 190.007C184.868 178.125 186.91 166.114 188.32 154.022C188.845 149.139 190.398 144.419 192.88 140.166C195.26 135.97 197.34 131.615 199.68 127.399C200.609 125.866 201.168 124.142 201.314 122.36C201.46 120.578 201.188 118.787 200.52 117.126C199.98 115.721 199.46 114.296 198.8 112.95C196.8 109.09 194.8 105.27 192.96 101.37C191.98 99.3909 192.2 99.1534 194.38 99.094C197.64 99.094 197.64 99.094 197.7 95.8478C197.7 95.4124 197.7 94.9769 197.7 94.5414C197.7 93.1757 197.18 92.4235 195.7 92.5621C194.7 92.5621 193.7 92.5621 192.66 92.5621C191.28 92.5621 190.88 91.988 191.22 90.5827C191.895 88.2981 193.222 86.2551 195.042 84.6995C196.862 83.1438 199.098 82.1418 201.48 81.814C205.911 81.4338 210.376 81.7207 214.72 82.6652C215.221 82.8215 215.765 82.7762 216.232 82.5391C216.7 82.3021 217.055 81.8923 217.22 81.3984C218.02 79.419 218.9 77.4396 219.8 75.4602C220.004 75.109 220.094 74.7044 220.058 74.3008C220.023 73.8973 219.863 73.5144 219.6 73.2037C213.2 65.1674 206.26 57.6656 196.8 52.8557C196.343 52.661 195.942 52.3561 195.635 51.9688C195.328 51.5816 195.123 51.1243 195.04 50.6388C194.505 47.8093 193.653 45.0475 192.5 42.4045C191.959 40.9964 190.969 39.8012 189.68 39V39Z" fill="black"/>
</g>
<defs>
<clipPath id="clip0_15224_451">
<rect width="140" height="192" fill="white" transform="translate(80 39)"/>
</clipPath>
</defs>
</svg>
