<svg width="32" height="32" viewBox="0 0 32 32" fill="#666666" xmlns="http://www.w3.org/2000/svg">
	<path
		d="M2.08533 10.4899C2.08533 9.63485 2.60043 9.17381 3.63064 9.10674L7.60048 9.13189C7.86691 9.13189 8.04453 9.25763 8.13334 9.50911C8.54187 10.7665 8.99925 11.8521 9.50547 12.7658C10.0117 13.6795 10.6733 14.7315 11.4904 15.9218C11.5614 16.0727 11.6769 16.1482 11.8368 16.1482C11.9611 16.1482 12.0588 16.0895 12.1298 15.9721L12.2098 15.6955L12.2364 11.3449C12.2364 11.0431 12.1609 10.842 12.0099 10.7414C11.859 10.6408 11.5792 10.5653 11.1707 10.515C10.851 10.4647 10.6911 10.2803 10.6911 9.96177C10.6911 9.89471 10.7 9.84442 10.7177 9.81089C11.0907 8.72114 12.1565 8.17627 13.9149 8.17627L15.4069 8.15112C16.0819 8.15112 16.6414 8.31039 17.0855 8.62893C17.5295 8.94747 17.7516 9.45043 17.7516 10.1378V15.8464C17.8759 15.9302 17.9913 15.9721 18.0979 15.9721C18.3643 15.9721 18.5953 15.8212 18.7906 15.5195C20.7445 12.9376 21.8013 11.2108 21.9612 10.339C21.9612 10.3222 21.9789 10.2803 22.0145 10.2133C22.1388 9.96177 22.3431 9.74383 22.6273 9.55941C22.9115 9.37499 23.1601 9.24925 23.3733 9.18219C23.4443 9.14866 23.5243 9.13189 23.6131 9.13189H27.7428L28.0092 9.15704C28.3644 9.15704 28.6398 9.31631 28.8351 9.63485C28.9062 9.73544 28.955 9.84442 28.9817 9.96177C29.0083 10.0791 29.0261 10.1965 29.035 10.3138C29.0439 10.4312 29.0483 10.4983 29.0483 10.515V10.6911C28.924 11.3784 28.6087 12.1119 28.1025 12.8915C27.5962 13.6711 26.9524 14.5135 26.1708 15.4189C25.3893 16.3242 24.9008 16.9194 24.7054 17.2044C24.5456 17.4056 24.4657 17.59 24.4657 17.7576C24.4657 17.8918 24.5367 18.0426 24.6788 18.2103L28.5687 22.8375C28.7819 23.1058 28.8884 23.3992 28.8884 23.7177C28.8884 24.1033 28.7286 24.4218 28.4089 24.6733C28.0891 24.9248 27.7072 25.0673 27.2632 25.1008L26.8103 25.126H22.7605C22.7427 25.126 22.7072 25.1302 22.6539 25.1385C22.6006 25.1469 22.5651 25.1511 22.5473 25.1511C22.1566 25.1511 21.7924 24.9919 21.455 24.6733C21.3306 24.5392 20.4958 23.55 18.9505 21.7059C18.8617 21.5885 18.7374 21.4795 18.5775 21.3789C18.5064 21.6472 18.4132 22.0328 18.2977 22.5357C18.1823 23.0387 18.0979 23.3992 18.0446 23.6171L17.9647 24.0446C17.7871 24.6314 17.4141 24.9835 16.8457 25.1008L16.4727 25.126H13.8616C12.3874 25.126 10.9176 24.4889 9.45218 23.2147C7.98681 21.9406 6.66797 20.2934 5.49566 18.2732C4.32336 16.2529 3.23099 13.9016 2.21854 11.2192C2.12973 11.0012 2.08533 10.7581 2.08533 10.4899ZM18.0979 17.0032C17.7249 17.0032 17.3874 16.9068 17.0855 16.714C16.7835 16.5212 16.6325 16.2571 16.6325 15.9218V10.1378C16.6325 9.8025 16.5437 9.5636 16.3661 9.42109C16.1885 9.27859 15.8776 9.20734 15.4336 9.20734L13.9149 9.25763C13.1512 9.25763 12.5739 9.38337 12.1831 9.63485C12.9647 9.98692 13.3554 10.5569 13.3554 11.3449V15.7709C13.3199 16.1901 13.1423 16.538 12.8226 16.8146C12.5028 17.0912 12.1476 17.2295 11.7568 17.2295C11.224 17.2295 10.8154 16.9864 10.5312 16.5002C9.14579 14.5219 8.11558 12.6442 7.44062 10.8671L7.20083 10.2133L3.65728 10.1881C3.42637 10.1881 3.29759 10.2007 3.27095 10.2258C3.24431 10.251 3.23099 10.3222 3.23099 10.4396C3.23099 10.5905 3.24875 10.7497 3.28427 10.9174L3.84378 12.3257C5.3358 15.9637 6.9566 18.8306 8.70617 20.9263C10.4557 23.0219 12.1742 24.0698 13.8616 24.0698H16.526C16.6325 24.0698 16.7125 24.0404 16.7658 23.9817C16.819 23.9231 16.8634 23.8099 16.899 23.6422L16.9523 23.3908L17.4585 21.1778C17.6006 20.876 17.7249 20.6748 17.8315 20.5742C18.0269 20.3898 18.2578 20.2976 18.5242 20.2976C18.9505 20.2976 19.3857 20.5407 19.8297 21.0269L22.0944 23.7428C22.2365 23.9608 22.3875 24.0698 22.5473 24.0698H26.9435C27.4763 24.0698 27.7428 23.944 27.7428 23.6925C27.7428 23.6087 27.7161 23.5249 27.6628 23.4411L23.7996 18.8893C23.4976 18.5372 23.3466 18.16 23.3466 17.7576C23.3466 17.3553 23.4887 16.9697 23.7729 16.6008C24.0038 16.2655 24.4523 15.7081 25.1184 14.9285C25.7845 14.1489 26.3662 13.4196 26.8635 12.7406C27.3609 12.0616 27.6895 11.4455 27.8493 10.8922L27.9293 10.5653C27.9115 10.5318 27.9026 10.4773 27.9026 10.4019C27.9026 10.3264 27.8938 10.2635 27.876 10.2133H23.693C23.4266 10.3138 23.2134 10.4647 23.0536 10.6659L22.8937 11.1437C22.4496 12.3005 21.2862 14.086 19.4034 16.5002C19.0304 16.8355 18.5953 17.0032 18.0979 17.0032Z" />
</svg>