<svg width="32" height="32" viewBox="0 0 32 32" fill="none" xmlns="http://www.w3.org/2000/svg">
<path d="M15.9805 6.07812C17.6471 6.07812 19.0078 6.09766 20.0625 6.13672C20.9609 6.17578 21.7617 6.33203 22.4648 6.60547C23.1419 6.86589 23.7279 7.24349 24.2227 7.73828C24.7174 8.23307 25.0951 8.81901 25.3555 9.49609C25.6289 10.1992 25.7852 11 25.8242 11.8984C25.8633 12.9531 25.8828 14.3138 25.8828 15.9805C25.8828 17.6471 25.8633 19.0078 25.8242 20.0625C25.7852 20.9609 25.6289 21.7617 25.3555 22.4648C25.0951 23.1419 24.7174 23.7279 24.2227 24.2227C23.7279 24.7174 23.1419 25.0951 22.4648 25.3555C21.7617 25.6289 20.9609 25.7852 20.0625 25.8242C19.0078 25.8633 17.6471 25.8828 15.9805 25.8828C14.3138 25.8828 12.9531 25.8633 11.8984 25.8242C11 25.7852 10.1992 25.6289 9.49609 25.3555C8.81901 25.0951 8.23307 24.7174 7.73828 24.2227C7.24349 23.7279 6.86589 23.1419 6.60547 22.4648C6.33203 21.7617 6.17578 20.9609 6.13672 20.0625C6.09766 19.0078 6.07812 17.6471 6.07812 15.9805C6.07812 14.3138 6.09766 12.9531 6.13672 11.8984C6.17578 11 6.33203 10.1992 6.60547 9.49609C6.86589 8.81901 7.24349 8.23307 7.73828 7.73828C8.23307 7.24349 8.81901 6.86589 9.49609 6.60547C10.1992 6.33203 11 6.17578 11.8984 6.13672C12.9531 6.09766 14.3138 6.07812 15.9805 6.07812ZM15.9805 7.36719C14.2487 7.36719 12.8359 7.38672 11.7422 7.42578C11.0391 7.45182 10.388 7.57552 9.78906 7.79687C8.85156 8.1875 8.1875 8.85156 7.79688 9.78906C7.57552 10.388 7.45182 11.0391 7.42578 11.7422C7.38672 12.8359 7.36719 14.2487 7.36719 15.9805C7.36719 17.7122 7.38672 19.125 7.42578 20.2187C7.45182 20.9219 7.57552 21.5729 7.79688 22.1719C8.1875 23.1094 8.85156 23.7734 9.78906 24.1641C10.388 24.3854 11.0391 24.5091 11.7422 24.5352C12.8359 24.5742 14.2487 24.5937 15.9805 24.5937C17.7122 24.5937 19.125 24.5742 20.2188 24.5352C20.9219 24.5091 21.5729 24.3854 22.1719 24.1641C23.1094 23.7734 23.7734 23.1094 24.1641 22.1719C24.3854 21.5729 24.5091 20.9219 24.5352 20.2187C24.5742 19.125 24.5938 17.7122 24.5938 15.9805C24.5938 14.2487 24.5742 12.8359 24.5352 11.7422C24.5091 11.0391 24.3854 10.388 24.1641 9.78906C23.7734 8.85156 23.1094 8.1875 22.1719 7.79687C21.5729 7.57552 20.9219 7.45182 20.2188 7.42578C19.125 7.38672 17.7122 7.36719 15.9805 7.36719ZM15.9805 19.9453C17.0742 19.9453 18.0085 19.5579 18.7832 18.7832C19.5579 18.0085 19.9453 17.0742 19.9453 15.9805C19.9453 14.8867 19.5579 13.9525 18.7832 13.1777C18.0085 12.403 17.0742 12.0156 15.9805 12.0156C14.8867 12.0156 13.9525 12.403 13.1777 13.1777C12.403 13.9525 12.0156 14.8867 12.0156 15.9805C12.0156 17.0742 12.403 18.0085 13.1777 18.7832C13.9525 19.5579 14.8867 19.9453 15.9805 19.9453ZM15.9805 10.9023C17.3867 10.9023 18.5846 11.3971 19.5742 12.3867C20.5638 13.3763 21.0586 14.5742 21.0586 15.9805C21.0586 17.3867 20.5638 18.5846 19.5742 19.5742C18.5846 20.5638 17.3867 21.0586 15.9805 21.0586C14.5742 21.0586 13.3763 20.5638 12.3867 19.5742C11.3971 18.5846 10.9023 17.3867 10.9023 15.9805C10.9023 14.5742 11.3971 13.3763 12.3867 12.3867C13.3763 11.3971 14.5742 10.9023 15.9805 10.9023ZM22.4648 10.707C22.4648 11.0326 22.3477 11.3092 22.1133 11.5371C21.8789 11.765 21.5924 11.8789 21.2539 11.8789C20.9284 11.8789 20.6517 11.765 20.4238 11.5371C20.196 11.3092 20.082 11.0326 20.082 10.707C20.082 10.3685 20.196 10.082 20.4238 9.84766C20.6517 9.61328 20.9284 9.49609 21.2539 9.49609C21.5794 9.49609 21.8626 9.61654 22.1035 9.85742C22.3444 10.0983 22.4648 10.3815 22.4648 10.707Z" fill="#666666"/>
</svg>
